Asshole.Fever.Sandra.Perfect.Ass.XXX.29.12.2011


___________________________________

Format                                   : Windows Media
File size                                : 159 MiB
Duration                                 : 26mn 17s
Overall bit rate mode                    : Constant
Overall bit rate                         : 846 Kbps
Maximum Overall bit rate                 : 854 Kbps
Encoded date                             : UTC 2007-08-17 13:35:49.522

Video
ID                                       : 2
Format                                   : WMV2
Codec ID                                 : WMV2
Codec ID/Info                            : Windows Media Video 8
Description of the codec                 : Windows Media Video V8
Duration                                 : 26mn 17s
Bit rate mode                            : Constant
Bit rate                                 : 780 Kbps
Width                                    : 448 pixels
Height                                   : 336 pixels
Display aspect ratio                     : 4:3
Frame rate                               : 25.000 fps
Bit depth                                : 8 bits
Bits/(Pixel*Frame)                       : 0.207
Stream size                              : 147 MiB (92%)
Language                                 : English (US)

Audio
ID                                       : 1
Format                                   : WMA
Format version                           : Version 2
Codec ID                                 : 161
Codec ID/Info                            : Windows Media Audio
Description of the codec                 : Windows Media Audio 9 -  64 kbps, 44 kHz, stereo 1-pass CBR
Duration                                 : 26mn 17s
Bit rate mode                            : Constant
Bit rate                                 : 64.0 Kbps
Channel(s)                               : 2 channels
Sampling rate                            : 44.1 KHz
Bit depth                                : 16 bits
Stream size                              : 12.0 MiB (8%)
Language                                 : English (US)

